<svg width="31" height="32" viewBox="0 0 31 32" fill="none" xmlns="http://www.w3.org/2000/svg">
<path d="M30.9167 15.9999C30.9167 12.9508 30.0125 9.97014 28.3185 7.43488C26.6245 4.89963 24.2168 2.92363 21.3998 1.75678C18.5827 0.589932 15.4829 0.28463 12.4924 0.879486C9.50187 1.47434 6.75488 2.94264 4.59882 5.0987C2.44276 7.25476 0.974463 10.0017 0.379608 12.9923C-0.215248 15.9828 0.0900538 19.0826 1.2569 21.8996C2.42376 24.7167 4.39975 27.1244 6.93501 28.8184C9.47026 30.5124 12.4509 31.4166 15.5 31.4166C19.5874 31.412 23.5061 29.7863 26.3963 26.8961C29.2865 24.0059 30.9122 20.0873 30.9167 15.9999ZM14.4101 23.2566C14.2669 23.1134 14.1533 22.9435 14.0758 22.7565C13.9983 22.5695 13.9584 22.369 13.9584 22.1665C13.9584 21.9641 13.9983 21.7636 14.0758 21.5766C14.1533 21.3896 14.2669 21.2197 14.4101 21.0765L17.945 17.5416H9.33338C8.92451 17.5416 8.53238 17.3792 8.24326 17.09C7.95414 16.8009 7.79171 16.4088 7.79171 15.9999C7.79171 15.5911 7.95414 15.1989 8.24326 14.9098C8.53238 14.6207 8.92451 14.4583 9.33338 14.4583H17.945L14.4101 10.9232C14.1253 10.6332 13.9666 10.2426 13.9684 9.83615C13.9703 9.42974 14.1325 9.0405 14.4199 8.75313C14.7073 8.46575 15.0965 8.30349 15.5029 8.30165C15.9093 8.29981 16.3 8.45854 16.59 8.7433L22.7562 14.9095C23.0442 15.1993 23.2059 15.5914 23.2059 16C23.2059 16.4086 23.0442 16.8006 22.7562 17.0905L16.59 23.2566C16.4469 23.3997 16.277 23.5133 16.09 23.5908C15.9029 23.6683 15.7025 23.7082 15.5 23.7082C15.2976 23.7082 15.0972 23.6683 14.9101 23.5908C14.7231 23.5133 14.5532 23.3997 14.4101 23.2566Z" fill="#FCE0EF"/>
</svg>
